<svg width="28" height="28" viewBox="0 0 28 28" fill="none" xmlns="http://www.w3.org/2000/svg">
<g clip-path="url(#clip0_18721_11587)">
<path d="M8.16699 21.0002C6.88366 21.0002 5.84533 22.0502 5.84533 23.3335C5.84533 24.6168 6.88366 25.6668 8.16699 25.6668C9.45033 25.6668 10.5003 24.6168 10.5003 23.3335C10.5003 22.0502 9.45033 21.0002 8.16699 21.0002ZM1.16699 3.50016C1.16699 4.14183 1.69199 4.66683 2.33366 4.66683H3.50033L7.70033 13.5218L6.12533 16.3685C5.27366 17.9318 6.39366 19.8335 8.16699 19.8335H21.0003C21.642 19.8335 22.167 19.3085 22.167 18.6668C22.167 18.0252 21.642 17.5002 21.0003 17.5002H8.16699L9.45033 15.1668H18.142C19.017 15.1668 19.787 14.6885 20.1837 13.9652L24.3603 6.3935C24.792 5.6235 24.232 4.66683 23.3453 4.66683H6.07866L5.29699 2.9985C5.11033 2.59016 4.69033 2.3335 4.24699 2.3335H2.33366C1.69199 2.3335 1.16699 2.8585 1.16699 3.50016ZM19.8337 21.0002C18.5503 21.0002 17.512 22.0502 17.512 23.3335C17.512 24.6168 18.5503 25.6668 19.8337 25.6668C21.117 25.6668 22.167 24.6168 22.167 23.3335C22.167 22.0502 21.117 21.0002 19.8337 21.0002Z" fill="black"/>
</g>
<defs>
<clipPath id="clip0_18721_11587">
<rect width="28" height="28" fill="white"/>
</clipPath>
</defs>
</svg>
